<svg width="201" height="200" viewBox="0 0 201 200" fill="none" xmlns="http://www.w3.org/2000/svg">
<path fill-rule="evenodd" clip-rule="evenodd" d="M57.0403 99.9999C25.8152 99.9999 0.502251 74.6869 0.502251 43.4618V-7.62939e-05H100.461V99.9999H57.0403ZM23.7391 50.0001H84.6033C85.4322 59.7337 80.7549 79.2008 55.4146 79.2008C30.0742 79.2008 23.7391 59.7337 23.7391 50.0001Z" fill="#1A1A1A"/>
<path fill-rule="evenodd" clip-rule="evenodd" d="M143.962 99.9999C175.187 99.9999 200.5 125.313 200.5 156.538V200H100.541V99.9999H143.962ZM175.652 151.264C175.977 155.078 174.278 160.813 170.259 165.613C166.287 170.357 160.112 174.106 151.553 174.106C143.874 174.106 137.299 170.369 132.609 165.536C127.872 160.653 125.285 154.893 125.285 151.143H122.434C122.434 155.903 125.533 162.337 130.563 167.521C135.64 172.754 142.912 176.957 151.553 176.957C161.04 176.957 167.988 172.767 172.445 167.444C176.856 162.177 178.893 155.718 178.494 151.022L175.652 151.264Z" fill="#1A1A1A"/>
<path fill-rule="evenodd" clip-rule="evenodd" d="M200.5 99.9998H157.079C125.854 99.9998 100.541 74.6869 100.541 43.4618V-0.000152588H200.5V99.9998ZM126.992 33.2769C125.512 35.0392 124.925 37.1093 125.035 38.3996L122.718 38.5973C122.547 36.5861 123.412 33.9254 125.211 31.7823C127.048 29.5934 129.914 27.8744 133.8 27.8744C137.364 27.8744 140.34 29.6038 142.397 31.7192C144.415 33.7943 145.731 36.4347 145.731 38.4985H143.406C143.406 37.2607 142.511 35.1703 140.731 33.34C138.99 31.5499 136.582 30.1992 133.8 30.1992C130.669 30.1992 128.432 31.5603 126.992 33.2769ZM160.664 38.4C160.555 37.1081 161.141 35.0372 162.614 33.2751C164.049 31.5587 166.275 30.1992 169.39 30.1992C172.158 30.1992 174.555 31.5483 176.289 33.3383C178.062 35.1681 178.954 37.259 178.954 38.4984H181.279C181.279 36.4364 179.97 33.7964 177.959 31.7208C175.91 29.6053 172.944 27.8744 169.39 27.8744C165.517 27.8744 162.66 29.5949 160.83 31.784C159.038 33.9273 158.177 36.5873 158.348 38.5969L160.664 38.4Z" fill="#22B34F"/>
<path fill-rule="evenodd" clip-rule="evenodd" d="M43.9234 100H0.502251V200H100.461V156.538C100.461 125.313 75.1485 100 43.9234 100ZM42.4104 140.662C42.4104 145.82 38.2308 150.001 33.0749 150.001C27.9191 150.001 23.7394 145.82 23.7394 140.662C23.7394 135.504 27.9191 131.323 33.0749 131.323C38.2308 131.323 42.4104 135.504 42.4104 140.662ZM77.6323 140.662C77.6323 145.82 73.4527 150.001 68.2968 150.001C63.141 150.001 58.9613 145.82 58.9613 140.662C58.9613 135.504 63.141 131.323 68.2968 131.323C73.4527 131.323 77.6323 135.504 77.6323 140.662Z" fill="#22B34F"/>
</svg>
