<svg width="118" height="118" viewBox="0 0 118 118" fill="none" xmlns="http://www.w3.org/2000/svg">
<path fill-rule="evenodd" clip-rule="evenodd" d="M33.7004 59.2008C15.4932 59.2008 0.733398 44.441 0.733398 26.2338V0.915222H59.019V59.2008H33.7004ZM14.282 30.058H49.7716C50.2549 35.7313 47.5276 47.0778 32.7518 47.0778C17.976 47.0778 14.282 35.7313 14.282 30.058Z" fill="#C8C7C7"/>
<path fill-rule="evenodd" clip-rule="evenodd" d="M84.3855 59.2004C102.593 59.2004 117.353 73.9602 117.353 92.1674V117.486H59.0669V59.2004H84.3855ZM102.864 89.0798C103.053 91.3026 102.062 94.6454 99.7189 97.4429C97.4029 100.208 93.8024 102.393 88.8116 102.393C84.334 102.393 80.5 100.215 77.7655 97.3977C75.0031 94.5517 73.4947 91.1945 73.4947 89.0092H71.8321C71.8321 91.784 73.6397 95.5343 76.5724 98.5557C79.5329 101.606 83.773 104.055 88.8116 104.055C94.3432 104.055 98.3943 101.613 100.993 98.5105C103.565 95.4406 104.754 91.676 104.52 88.9386L102.864 89.0798Z" fill="#C8C7C7"/>
<path fill-rule="evenodd" clip-rule="evenodd" d="M117.353 59.2009H92.0339C73.8267 59.2009 59.0669 44.4411 59.0669 26.2339V0.915283H117.353V59.2009ZM74.4911 20.3113C73.6287 21.3384 73.2861 22.5449 73.3503 23.2968L71.9996 23.4121C71.8995 22.2397 72.4041 20.6887 73.453 19.4396C74.5243 18.1637 76.1955 17.1619 78.4612 17.1619C80.5395 17.1619 82.2747 18.1698 83.4743 19.4028C84.6509 20.6123 85.4182 22.1514 85.4182 23.3544L84.0626 23.3544C84.0626 22.6332 83.5405 21.4149 82.5026 20.3481C81.4876 19.3047 80.0833 18.5174 78.4612 18.5174C76.6352 18.5174 75.3312 19.3108 74.4911 20.3113ZM94.1256 23.297C94.0616 22.5442 94.4033 21.3373 95.2622 20.3103C96.0988 19.3099 97.3968 18.5174 99.2137 18.5174C100.828 18.5174 102.225 19.3039 103.236 20.3471C104.27 21.4136 104.79 22.6322 104.79 23.3544L106.146 23.3544C106.146 22.1523 105.382 20.6135 104.21 19.4037C103.015 18.1707 101.286 17.1619 99.2137 17.1619C96.955 17.1619 95.2895 18.1646 94.2223 19.4406C93.1775 20.6899 92.6752 22.2404 92.7749 23.4119L94.1256 23.297Z" fill="white"/>
<path fill-rule="evenodd" clip-rule="evenodd" d="M26.0521 59.2006H0.733398V117.486H59.019V92.1676C59.019 73.9604 44.2592 59.2006 26.0521 59.2006ZM45.707 82.9004C45.707 85.9067 43.2699 88.3438 40.2635 88.3438C37.2572 88.3438 34.82 85.9067 34.82 82.9004C34.82 79.894 37.2572 77.4569 40.2635 77.4569C43.2699 77.4569 45.707 79.894 45.707 82.9004ZM25.1689 82.9004C25.1689 85.9068 22.7318 88.3439 19.7255 88.3439C16.7191 88.3439 14.282 85.9068 14.282 82.9004C14.282 79.8941 16.7191 77.457 19.7255 77.457C22.7318 77.457 25.1689 79.8941 25.1689 82.9004Z" fill="white"/>
</svg>
